<svg t="1539589375789" class="icon" style="" viewBox="0 0 1024 1024" version="1.1" xmlns="http://www.w3.org/2000/svg"  xmlns:xlink="http://www.w3.org/1999/xlink" width="200" height="200">
  <defs><style type="text/css"></style></defs>
  <path d="M512 512m-512 0a512 512 0 1 0 1024 0 512 512 0 1 0-1024 0Z" fill="transparent" p-id="1254"></path>
  <path d="M310.3744 425.936213m-41.63584 0a41.63584 41.63584 0 1 0 83.27168 0 41.63584 41.63584 0 1 0-83.27168 0Z" fill="#1A1A1A" p-id="1255"></path>
  <path d="M716.731733 425.936213m-41.63584 0a41.63584 41.63584 0 1 0 83.27168 0 41.63584 41.63584 0 1 0-83.27168 0Z" fill="#1A1A1A" p-id="1257"></path>


  <path d="M294.229333 409.791147m-20.391253 0a20.391253 20.391253 0 1 0 40.782507 0 20.391253 20.391253 0 1 0-40.782507 0Z" fill="#EFEFEF" id="left-eye"></path>
  <path d="M700.586667 409.791147m-20.391254 0a20.391253 20.391253 0 1 0 40.782507 0 20.391253 20.391253 0 1 0-40.782507 0Z" fill="#EFEFEF" id="right-eye"></path>


  <path d="M602.412373 522.99776h-0.55296L512 492.844373l-89.859413 30.153387h-0.55296c-14.650027 0-28.460373-2.464427-38.912-6.935893-11.359573-4.867413-17.6128-11.700907-17.6128-19.23072h6.826666c0 9.086293 20.145493 19.21024 49.152 19.339946L512 485.64224l90.97216 30.528853c28.9792-0.129707 49.152-10.24 49.152-19.339946h6.826667c0 7.509333-6.253227 14.336-17.6128 19.23072-10.46528 4.471467-24.275627 6.935893-38.925654 6.935893z" fill="" p-id="1259"></path>
  <path d="M421.587627 519.584427l19.64032 50.701653a83.43552 83.43552 0 0 1 141.544106 0l19.64032-50.701653L512 489.24672z" fill="#7D0B12" p-id="1260"></path>
  <path d="M583.49568 577.877333l-3.618133-5.782186a80.022187 80.022187 0 0 0-135.755094 0l-3.618133 5.782186L417.109333 517.461333l94.890667-31.8464L606.890667 517.461333z m-157.436587-56.190293l16.001707 41.294507a86.85568 86.85568 0 0 1 139.8784 0l16.001707-41.294507L512 492.844373z" fill="" p-id="1261"></path>
  <path d="M582.772053 569.009493a83.43552 83.43552 0 0 0-141.544106 0C455.96672 632.756907 482.153813 675.157333 512 675.157333s56.03328-42.400427 70.772053-106.14784z" fill="#FC4A62" p-id="1262"></path>
  <path d="M512 678.570667c-30.644907 0-58.34752-40.666453-74.09664-108.78976l-0.320853-1.365334 0.750933-1.201493a86.848853 86.848853 0 0 1 147.33312 0l0.750933 1.201493-0.320853 1.365334C570.34752 637.904213 542.644907 678.570667 512 678.570667z m-67.119787-108.93312C459.69408 632.661333 485.376 671.744 512 671.744s52.312747-39.082667 67.126613-102.106453a80.01536 80.01536 0 0 0-134.2464 0z" fill="" p-id="1263"></path>
  <path d="M253.487787 597.271893m-56.886614 0a56.886613 56.886613 0 1 0 113.773227 0 56.886613 56.886613 0 1 0-113.773227 0Z" fill="#E41014" p-id="1264"></path>
  <path d="M777.864533 597.271893m-56.886613 0a56.886613 56.886613 0 1 0 113.773227 0 56.886613 56.886613 0 1 0-113.773227 0Z" fill="#E41014" p-id="1265"></path>
  <path d="M495.957333 411.01312a20.043093 20.043093 0 0 1 16.042667-7.41376 21.46304 21.46304 0 0 1 16.042667 7.707307l-15.742294 18.88256z" fill="#333333" p-id="1266"></path>

  <style>
    @keyframes moving {
      0% {
        transform: translateX(0)
      }

      100% {
        transform: translateX(30px)
      }
    }

    #left-eye {
      animation: moving .4s alternate-reverse infinite ;
    }
    #right-eye {
      animation: moving .4s .4s alternate-reverse infinite ;
    }

  </style>
</svg>