<?xml version="1.0" standalone="no"?><!DOCTYPE svg PUBLIC "-//W3C//DTD SVG 1.1//EN" "http://www.w3.org/Graphics/SVG/1.1/DTD/svg11.dtd"><svg class="icon" width="200px" height="200.00px" viewBox="0 0 1024 1024" version="1.1" xmlns="http://www.w3.org/2000/svg"><path d="M510.91 885.15c-206.08 0-373.15-167.06-373.15-373.15s167.06-373.15 373.15-373.15S884.05 305.92 884.05 512 716.99 885.15 510.91 885.15z" fill="#A4D4FF" /><path d="M464.24 398.93c0-17.91-7.46-25-26.49-25h-48.51c-19.03 0-26.49 7.09-26.49 25v226.13c0 17.91 7.46 25 26.49 25h48.14c19.4 0 26.87-7.09 26.87-25V398.93zM661.22 398.93c0-17.91-7.46-25-26.49-25h-48.14c-19.03 0-26.49 7.09-26.49 25v226.13c0 17.91 7.46 25 26.49 25h48.14c19.03 0 26.49-7.09 26.49-25V398.93z" fill="#2B8CF7" /></svg>