<?xml version="1.0" standalone="no"?><!DOCTYPE svg PUBLIC "-//W3C//DTD SVG 1.1//EN" "http://www.w3.org/Graphics/SVG/1.1/DTD/svg11.dtd"><svg t="1670334220257" class="icon" viewBox="0 0 1024 1024" version="1.1" xmlns="http://www.w3.org/2000/svg" p-id="7203" xmlns:xlink="http://www.w3.org/1999/xlink" width="200" height="200"><path d="M1024.386415 0H309.50883a19.320755 19.320755 0 0 0-13.640453 5.64166L10.911396 289.811321H0.381585v14.867321c-0.545811 2.492377-0.468528 5.037887 0 7.573735v687.973434c-0.545811 2.492377-0.468528 5.037887 0 7.573736V1024H700.908679c1.096453 0 2.115623-0.217358 3.173434-0.318792h10.674717a19.320755 19.320755 0 0 0 13.645283-5.641661l290.29917-289.492528c4.588679-4.564528 6.342038-11.027321 5.168302-17.214793 0.304302-1.671245 0.512-3.371472 0.512-5.12V0z m-985.35849 328.45283h251.169811v378.396981l-251.169811 250.469434V328.45283z m656.90566 656.586868H65.941736L317.497962 734.188679h378.435623v250.851019zM328.839245 695.54717V328.134038h367.09434V695.54717h-367.09434z m405.735849-379.208453l251.169812-250.469434V695.54717h-251.169812V316.338717z m-27.797736-26.846189H328.839245V38.641509h629.49434l-251.551396 250.851019zM290.197736 65.869283v223.623245H65.951396l224.24151-223.623245z m444.377358 891.449962V734.188679h223.753661l-223.753661 223.130566z" fill="#B7F5F0" p-id="7204"></path><path d="M985.744906 65.869283l-251.169812 250.469434V695.54717h251.169812zM695.933585 328.134038h-367.09434V695.54717h367.09434V328.45283z" fill="#3BABB7" p-id="7205"></path><path d="M290.197736 65.869283L65.946566 289.492528h224.241509zM328.839245 289.492528h377.938113L958.328755 38.641509H328.834415z" fill="#7BE5E4" p-id="7206"></path><path d="M734.575094 957.319245L958.319094 734.188679H734.575094zM65.946566 985.039698H695.933585V734.188679H317.493132z" fill="#3BABB7" p-id="7207"></path></svg>